<svg id="visual" viewBox="0 0 900 600" width="900" height="600" xmlns="http://www.w3.org/2000/svg" xmlns:xlink="http://www.w3.org/1999/xlink" version="1.1"><path d="M0 575L25 574.5C50 574 100 573 150 565.2C200 557.3 250 542.7 300 539.2C350 535.7 400 543.3 450 538.5C500 533.7 550 516.3 600 508.8C650 501.3 700 503.7 750 512.3C800 521 850 536 875 543.5L900 551L900 601L875 601C850 601 800 601 750 601C700 601 650 601 600 601C550 601 500 601 450 601C400 601 350 601 300 601C250 601 200 601 150 601C100 601 50 601 25 601L0 601Z" fill="#93a58a" stroke-linecap="round" stroke-linejoin="miter"></path></svg>