<svg id="visual" viewBox="0 0 900 600" width="900" height="600" xmlns="http://www.w3.org/2000/svg" xmlns:xlink="http://www.w3.org/1999/xlink" version="1.1"><path d="M0 584L37.5 578.8C75 573.7 150 563.3 225 562.3C300 561.3 375 569.7 450 572C525 574.3 600 570.7 675 566.3C750 562 825 557 862.5 554.5L900 552L900 601L862.5 601C825 601 750 601 675 601C600 601 525 601 450 601C375 601 300 601 225 601C150 601 75 601 37.5 601L0 601Z" fill="#586552" stroke-linecap="round" stroke-linejoin="miter"></path></svg>