<svg id="visual" viewBox="0 0 900 600" width="900" height="600" xmlns="http://www.w3.org/2000/svg" xmlns:xlink="http://www.w3.org/1999/xlink" version="1.1"><path d="M0 555L37.5 559.5C75 564 150 573 225 578.2C300 583.3 375 584.7 450 581.3C525 578 600 570 675 565.7C750 561.3 825 560.7 862.5 560.3L900 560L900 601L862.5 601C825 601 750 601 675 601C600 601 525 601 450 601C375 601 300 601 225 601C150 601 75 601 37.5 601L0 601Z" fill="#64474c" stroke-linecap="round" stroke-linejoin="miter"></path></svg>