<?xml version="1.0" encoding="UTF-8"?>
<svg id="Layer_1" data-name="Layer 1" xmlns="http://www.w3.org/2000/svg" viewBox="0 0 227.31 302.74">
  <defs>
    <style>
      .cls-1 {
        fill: #677267;
      }
    </style>
  </defs>
  <path class="cls-1" d="M89.1.38c30.53,2.13,60.1,12.7,86.57,28.06,9.97,5.79,19.61,12.3,27.85,20.37,17.68,17.31,28.32,43.42,21.91,67.32-5.36,20.01-21.2,35.18-32.63,52.46-1.25,1.9-2.49,3.9-2.84,6.14-.33,2.11.16,4.26.51,6.37.73,4.37.9,8.8,1.28,13.21,1.79,20.34,8.22,41.41,1.36,60.65-5.4,15.14-18.51,26.58-33.13,33.28-14.61,6.7-30.75,9.24-46.71,11.23-37.73,4.7-78.18,6.22-111.44-12.2-.54-49.7-.91-99.41-1.1-149.12-.1-24.85-.15-49.71-.15-74.56,0-12.16-1.33-25.18.03-37.26.91-8.08,11.05-11.01,17.62-13.96C40.34,2.45,64.99-1.28,89.1.38Z"/>
  <text/>
</svg>